<svg width="124" height="60" viewBox="0 0 124 60" fill="none" xmlns="http://www.w3.org/2000/svg">
<g clip-path="url(#clip0_95_238)">
<path d="M41.9047 26.6665C47.1645 26.6665 51.4285 22.1893 51.4285 16.6665C51.4285 11.1437 47.1645 6.6665 41.9047 6.6665C36.6448 6.6665 32.3809 11.1437 32.3809 16.6665C32.3809 22.1893 36.6448 26.6665 41.9047 26.6665Z" fill="#F17165"/>
<path d="M16.253 44.3177C17.309 43.823 17.5791 43.0765 17.0845 42.0207L14.6847 36.8978L16.5874 35.768C22.5511 32.2111 26.6288 26.8674 23.5144 20.2195C20.0886 12.9068 13.8972 12.5168 7.24931 15.6311L1.07065 18.5256C0.0147972 19.0203 -0.255418 19.7668 0.239212 20.8227L11.4142 44.677C11.9089 45.7329 12.6553 46.003 13.7112 45.5085L16.253 44.3177ZM10.1537 21.4237C13.1649 20.013 16.3419 19.6692 17.8441 22.8759C19.0715 25.4959 16.9179 28.1262 13.9959 29.8289L11.9367 31.032L7.92468 22.4679L10.1537 21.4237Z" fill="#353535"/>
<path d="M45.8934 31.556C54.4306 29.2136 58.453 21.8407 56.0567 12.781C53.5168 3.85021 46.3138 -0.532214 37.8183 1.79878C29.1978 4.16405 25.1983 11.6202 27.655 20.5738C30.1345 29.6107 37.3563 33.8985 45.8934 31.556ZM44.2628 25.2864C38.849 26.7719 35.0647 23.9144 33.6934 18.917C32.3451 14.0029 34.1184 9.53092 39.4906 8.05692C44.7794 6.60576 48.5866 9.54654 50.0182 14.4378C51.3061 19.4581 49.5516 23.8353 44.2628 25.2864Z" fill="#353535"/>
<path d="M67.0648 28.4767L69.8484 12.3923L73.8811 21.5048C74.1258 22.1169 74.4866 22.3108 74.8697 22.377L77.0398 22.7526C77.4227 22.8189 77.7779 22.7927 78.2565 22.3058L84.8233 15.5097L81.9807 31.9346C81.7819 33.0835 82.2394 33.7324 83.3883 33.9312L86.1541 34.4099C87.303 34.6087 87.9519 34.1512 88.1507 33.0024L92.6427 7.04603C92.8416 5.89714 92.3842 5.24824 91.2353 5.04941L88.4694 4.57075C87.5759 4.4161 87.1618 4.7827 86.6758 5.31215L77.5012 14.7685L71.5356 1.37718C71.2836 0.807655 70.8727 0.648911 70.1494 0.523721L67.3836 0.0450581C66.2346 -0.153771 65.5858 0.303665 65.3869 1.45255L60.8949 27.409C60.6961 28.5578 61.1535 29.2067 62.3023 29.4055L65.0683 29.8842C66.2171 30.083 66.866 29.6256 67.0648 28.4767Z" fill="#353535"/>
<path d="M101.349 43.2715C109.383 46.991 117.213 43.9544 121.229 35.487C125.051 27.0255 122.377 19.0296 114.383 15.3282C106.271 11.5723 98.4047 14.6873 94.5033 23.1125C90.566 31.6162 93.316 39.5519 101.349 43.2715ZM104.149 37.4297C99.0552 35.0709 98.0085 30.446 100.186 25.7435C102.327 21.1194 106.567 18.8474 111.622 21.1881C116.599 23.4924 117.609 28.1957 115.547 32.8561C113.291 37.5223 109.127 39.734 104.149 37.4297Z" fill="#353535"/>
<path d="M48.2544 47.2578C49.3705 47.2578 50.2718 47.6261 50.9582 48.3628C51.6445 49.0937 51.9878 49.9978 51.9878 51.0748C51.9878 52.163 51.6445 53.0614 50.9582 53.7701C50.2774 54.4788 49.3761 54.8331 48.2544 54.8331H45.5842V59.2528H43.408V47.2578H48.2544ZM47.9029 53C48.5446 53 49.0329 52.8242 49.3678 52.4727C49.7082 52.1211 49.8783 51.644 49.8783 51.0413C49.8783 50.4553 49.7082 49.9838 49.3678 49.6267C49.0274 49.2695 48.5391 49.091 47.9029 49.091H45.5842V53H47.9029Z" fill="#353535"/>
<path d="M61.9469 59.2528L61.0262 56.6495H55.8532L54.9325 59.2528H52.6975L57.1171 47.2578H59.7622L64.1735 59.2528H61.9469ZM56.5061 54.808H60.3732L58.4397 49.3421L56.5061 54.808Z" fill="#353535"/>
<path d="M69.3028 57.3192H73.195V59.2528H67.1265V47.2578H69.3028V57.3192Z" fill="#353535"/>
<path d="M80.0905 59.4201C78.7959 59.4201 77.7077 59.1215 76.826 58.5244C75.9499 57.9273 75.4198 57.0986 75.2356 56.0383L77.4706 55.5194C77.571 56.189 77.864 56.7081 78.3495 57.0763C78.8405 57.439 79.4488 57.6204 80.1743 57.6204C80.7825 57.6204 81.282 57.4837 81.6726 57.2103C82.0687 56.9368 82.2641 56.5211 82.2585 55.963C82.2585 55.7957 82.2278 55.6394 82.1664 55.4943C82.1106 55.3436 82.0408 55.2153 81.9571 55.1093C81.8734 54.9977 81.7506 54.8916 81.5888 54.7912C81.4326 54.6851 81.2875 54.5986 81.1536 54.5317C81.0252 54.4591 80.8466 54.3838 80.6179 54.3057C80.3891 54.2276 80.1965 54.1662 80.0403 54.1215C79.8841 54.0713 79.6748 54.0071 79.4126 53.929C79.3623 53.9123 79.3232 53.9011 79.2953 53.8955C78.9772 53.8006 78.7178 53.7225 78.5168 53.6611C78.316 53.5942 78.0732 53.5022 77.7886 53.3849C77.5041 53.2678 77.2697 53.1533 77.0855 53.0418C76.9069 52.9302 76.7145 52.7879 76.508 52.6148C76.307 52.4419 76.148 52.2604 76.0308 52.0707C75.9192 51.8754 75.8244 51.6466 75.7463 51.3843C75.6681 51.1221 75.629 50.8375 75.629 50.5305C75.629 49.8107 75.8132 49.1885 76.1815 48.664C76.5554 48.1338 77.052 47.7403 77.6714 47.4837C78.2908 47.227 78.994 47.0986 79.7808 47.0986C80.3221 47.0986 80.8355 47.1572 81.321 47.2744C81.8121 47.3916 82.2668 47.5702 82.6854 47.8102C83.1095 48.0445 83.4694 48.3654 83.7652 48.7727C84.0665 49.1745 84.273 49.6405 84.3846 50.1706L82.292 50.6896C82.1692 50.0869 81.8958 49.6377 81.4717 49.342C81.0531 49.0406 80.5285 48.89 79.898 48.89C79.3065 48.89 78.8126 49.0239 78.4164 49.2918C78.0203 49.554 77.8221 49.953 77.8221 50.4887C77.8221 50.6896 77.8695 50.871 77.9645 51.0328C78.0593 51.1946 78.1792 51.3314 78.3244 51.4429C78.475 51.549 78.6704 51.655 78.9103 51.761C79.1558 51.8615 79.3874 51.948 79.605 52.0205C79.8283 52.0875 80.1017 52.1656 80.4253 52.2549C80.4532 52.2604 80.4756 52.2661 80.4924 52.2717C80.9778 52.4111 81.3601 52.5283 81.6391 52.6232C81.9181 52.7181 82.2641 52.8687 82.677 53.0752C83.0956 53.2817 83.4165 53.4993 83.6396 53.7282C83.8685 53.9513 84.0693 54.2499 84.2424 54.6238C84.4153 54.9921 84.5018 55.405 84.5018 55.8626C84.5018 56.4653 84.3818 57.001 84.1419 57.4698C83.9019 57.9329 83.5726 58.304 83.1542 58.583C82.7412 58.8621 82.2752 59.0713 81.7563 59.2108C81.2428 59.3503 80.6876 59.4201 80.0905 59.4201Z" fill="#353535"/>
</g>
<defs>
<clipPath id="clip0_95_238">
<rect width="123.81" height="60" fill="white"/>
</clipPath>
</defs>
</svg>
